<svg width="1600" height="1000" viewBox="0 0 1600 1000" fill="none" xmlns="http://www.w3.org/2000/svg" role="img" aria-labelledby="title desc">
  <title id="title">Subpool usage refinement 03 — Key comparison</title>
  <desc id="desc">The existing dark usage page with compact key comparison bars and an inline model breakdown.</desc>
  <defs><style>.ui{font-family:'Geist Sans','Aptos','Segoe UI',sans-serif}.mono{font-family:'Geist Mono','SFMono-Regular',Consolas,monospace;font-variant-numeric:tabular-nums}.ink{fill:#FAFAFA}.soft{fill:#C7C7C7}.muted{fill:#8C8C8C}.label{fill:#949494;font-size:10px;font-weight:700;letter-spacing:1.2px}.rule{stroke:#2B2B2B}</style></defs>
  <rect width="1600" height="1000" fill="#0A0A0A"/><rect width="76" height="1000" fill="#0C0C0C"/><path d="M76 0V1000" stroke="#282828"/>
  <g fill="none" stroke="#777" stroke-width="1.7" stroke-linecap="round"><path d="M29 128H47M29 134H43M29 140H39"/><circle cx="38" cy="220" r="9"/><path d="M30 306H46M30 314H46M30 322H41"/><path d="M30 413V399M38 413V389M46 413V404" stroke="#FAFAFA"/><circle cx="38" cy="506" r="9"/></g><rect x="0" y="374" width="3" height="54" rx="1.5" fill="#6EA8FE"/><circle cx="38" cy="948" r="17" fill="#262626"/><text x="38" y="953" class="ui soft" font-size="12" font-weight="700" text-anchor="middle">A</text>
  <rect x="76" width="1524" height="68" fill="#0A0A0A"/><path d="M76 68H1600" stroke="#282828"/><text x="126" y="42" class="ui soft" font-size="13" font-weight="600">Usage</text><text x="1518" y="42" class="ui muted" font-size="12" text-anchor="end">Sign out</text>
  <g class="ui"><text x="126" y="137" class="ink" font-size="32" font-weight="650">Token usage</text><text x="126" y="166" class="muted" font-size="14">Input and output totals per API key. Request content is never stored.</text><rect x="1260" y="118" width="278" height="44" rx="7" fill="#171717" stroke="#333"/><text x="1278" y="145" class="soft" font-size="12" font-weight="600">Last 7 days</text><text x="1518" y="145" class="muted" font-size="12" text-anchor="end">Aug 27 – Sep 2 ⌄</text></g>
  <g class="ui"><rect x="126" y="214" width="448" height="124" rx="10" fill="#171717" stroke="#2B2B2B"/><text x="150" y="245" class="label">INPUT TOKENS</text><text x="150" y="291" class="ink mono" font-size="35" font-weight="650">1,554</text><text x="150" y="317" class="muted" font-size="11">82.0% of total</text><rect x="590" y="214" width="448" height="124" rx="10" fill="#171717" stroke="#2B2B2B"/><text x="614" y="245" class="label">OUTPUT TOKENS</text><text x="614" y="291" class="ink mono" font-size="35" font-weight="650">342</text><text x="614" y="317" class="muted" font-size="11">18.0% of total</text><rect x="1054" y="214" width="484" height="124" rx="10" fill="#171717" stroke="#2B2B2B"/><text x="1078" y="245" class="label">TOTAL TOKENS</text><text x="1078" y="291" class="ink mono" font-size="35" font-weight="650">1,896</text><text x="1078" y="317" class="muted" font-size="11">Across 3 active API keys</text></g>

  <rect x="126" y="366" width="1412" height="502" rx="10" fill="#151515" stroke="#2B2B2B"/>
  <g class="ui"><text x="150" y="406" class="ink" font-size="15" font-weight="650">Usage by API key</text><text x="150" y="429" class="muted" font-size="12">Compare key volume at a glance; expand only when model detail is needed.</text><path d="M126 452H1538" class="rule"/><text x="150" y="482" class="label">EMPLOYEE</text><text x="455" y="482" class="label">API KEY</text><text x="700" y="482" class="label">TOKEN MIX</text><text x="1170" y="482" class="label">SHARE</text><text x="1508" y="482" class="label" text-anchor="end">TOTAL</text><path d="M126 502H1538" class="rule"/>
    <rect x="142" y="522" width="34" height="34" rx="7" fill="#202B37" stroke="#345679"/><path d="M153 544L159 537L165 544" stroke="#6EA8FE" stroke-width="1.7" stroke-linecap="round" stroke-linejoin="round"/><text x="192" y="538" class="ink" font-size="14" font-weight="650">Wei</text><text x="192" y="557" class="muted" font-size="10">2 models</text><text x="455" y="546" class="soft mono" font-size="12">••••3UgA</text>
    <rect x="700" y="537" width="390" height="9" rx="4.5" fill="#292929"/><rect x="700" y="537" width="333" height="9" rx="4.5" fill="#6EA8FE"/><rect x="1033" y="537" width="57" height="9" rx="4.5" fill="#7C73FF"/><circle cx="702" cy="565" r="3.5" fill="#6EA8FE"/><text x="713" y="569" class="muted" font-size="10">Input 1,028</text><circle cx="800" cy="565" r="3.5" fill="#7C73FF"/><text x="811" y="569" class="muted" font-size="10">Output 176</text><text x="1170" y="546" class="soft mono" font-size="12">63.5%</text><text x="1508" y="546" class="ink mono" font-size="13" font-weight="700" text-anchor="end">1,204</text>
    <rect x="150" y="592" width="1364" height="130" rx="8" fill="#101010" stroke="#2B2B2B"/><text x="174" y="622" class="label">MODEL</text><text x="980" y="622" class="label" text-anchor="end">INPUT</text><text x="1190" y="622" class="label" text-anchor="end">OUTPUT</text><text x="1482" y="622" class="label" text-anchor="end">TOTAL</text><path d="M174 639H1490" class="rule"/><circle cx="182" cy="667" r="4" fill="#6EA8FE"/><text x="198" y="672" class="ink mono" font-size="11" font-weight="600">gpt-5.4</text><text x="980" y="672" class="soft mono" font-size="11" text-anchor="end">192</text><text x="1190" y="672" class="soft mono" font-size="11" text-anchor="end">176</text><text x="1482" y="672" class="ink mono" font-size="11" font-weight="700" text-anchor="end">368</text><circle cx="528" cy="667" r="4" fill="#555"/><text x="544" y="672" class="ink mono" font-size="11" font-weight="600">Unattributed</text><text x="700" y="672" class="muted" font-size="10">836 input</text>
    <path d="M142 744H1522" class="rule"/><circle cx="159" cy="781" r="15" fill="#28233D"/><text x="159" y="786" fill="#AFA8FF" font-size="11" font-weight="700" text-anchor="middle">A</text><text x="192" y="777" class="ink" font-size="13" font-weight="650">Alex</text><text x="192" y="796" class="muted" font-size="10">gpt-5.3-codex</text><text x="455" y="786" class="soft mono" font-size="12">••••pP7Q</text><rect x="700" y="777" width="390" height="9" rx="4.5" fill="#292929"/><rect x="700" y="777" width="87" height="9" rx="4.5" fill="#6EA8FE"/><rect x="787" y="777" width="32" height="9" rx="4.5" fill="#7C73FF"/><text x="1170" y="786" class="soft mono" font-size="12">22.5%</text><text x="1508" y="786" class="ink mono" font-size="13" font-weight="700" text-anchor="end">426</text><path d="M142 822H1522" class="rule"/><text x="150" y="850" class="muted" font-size="11">1 more key · 266 tokens</text></g>
  <text x="126" y="912" class="ui muted" font-size="11">All values are available from the current aggregate usage response.</text>
</svg>
